<svg xmlns="http://www.w3.org/2000/svg" viewBox="0 0 330 330" opacity=".4" xmlns:v="https://vecta.io/nano"><path d="M154.389 255.602a15.11 15.11 0 0 0 1.103.998l.52.388.659.484.649.395.608.359.681.328.648.301.676.247.709.248.684.176.739.181.794.121.658.095 1.48.075a14.9 14.9 0 0 0 1.479-.075l.667-.096.784-.12.754-.184.669-.172.724-.253.662-.242.659-.306.672-.324.611-.361.648-.394.644-.473.536-.4 1.049-.949c.016-.016.034-.028.049-.044l70.002-69.998c5.858-5.858 5.858-15.355 0-21.213s-15.355-5.858-21.213-.001l-44.396 44.393V25c0-8.284-6.716-15-15-15s-15 6.716-15 15v183.785l-44.392-44.391c-5.857-5.858-15.355-5.858-21.213 0s-5.858 15.355 0 21.213l69.997 69.995zM315 160c-8.284 0-15 6.716-15 15v115H30V175c0-8.284-6.716-15-15-15s-15 6.716-15 15v130c0 8.284 6.716 15 15 15h300c8.284 0 15-6.716 15-15V175c0-8.284-6.716-15-15-15z"/></svg>