<?xml version="1.0" standalone="no"?>
<!DOCTYPE svg>
<svg version="1.0" xmlns="http://www.w3.org/2000/svg"
 opacity=".4" viewBox="0 0 1280.000000 1280.000000"
 preserveAspectRatio="xMidYMid meet">
<g transform="translate(0.000000,1280.000000) scale(0.100000,-0.100000)"
fill="#000000" stroke="none">
<path d="M3360 12785 c-104 -28 -214 -91 -288 -163 -81 -79 -130 -158 -168
-267 -24 -70 -28 -95 -27 -200 0 -102 4 -132 26 -201 15 -44 45 -109 68 -145
30 -48 712 -736 2712 -2737 l2672 -2672 -2672 -2673 c-2001 -2002 -2682 -2688
-2712 -2736 -23 -36 -53 -101 -68 -145 -23 -70 -27 -97 -26 -201 0 -103 4
-132 27 -202 33 -101 106 -214 184 -283 66 -59 190 -123 281 -146 89 -22 272
-15 361 14 156 51 -28 -127 3131 3032 2292 2291 2944 2948 2972 2995 20 33 48
96 63 140 25 71 28 94 28 205 0 111 -4 134 -29 210 -16 47 -50 116 -76 155
-36 52 -806 828 -2971 2990 -3144 3142 -2962 2966 -3118 3017 -85 28 -288 35
-370 13z"/></g></svg>
