<svg xmlns="http://www.w3.org/2000/svg" width="300" height="200" xmlns:v="https://vecta.io/nano"><style><![CDATA[.B{font-family:Bitstream Vera Sans}.C{font-size:11.862px}.D{stroke-width:.988}]]></style><path d="M170.964 55.483h54.264v84.023h-54.264z" fill="none" stroke="#000" class="D"/><text transform="scale(1.0116662 .9884684)" y="74.562" x="208.793" xml:space="preserve" fill="#000" class="B C"><tspan y="74.562" x="208.793">Q</tspan></text><text transform="scale(1.0116662 .9884684)" y="75.875" x="171.818" xml:space="preserve" fill="#000" class="B C"><tspan y="75.875" x="171.818">D</tspan></text><text transform="scale(1.0116662 .9884684)" y="125.35" x="178.615" xml:space="preserve" fill="#000" class="B C"><tspan y="125.35" x="178.615">clk</tspan></text><g fill="none" stroke="#000"><path d="M171.182 117.148l6.64 3.378-6.64 3.265" class="D"/><path d="M120.437 69.994h50.291m55 0h25v-55H30.769l-.269 55h37.292"/><g stroke-linejoin="bevel"><path d="M68.484 50.494v40l45-20-45-20z"/><path d="M120.228 70.393c.001 1.2-.638 2.31-1.678 2.91s-2.32.6-3.359 0-1.679-1.71-1.678-2.91.638-2.31 1.678-2.91 2.32-.6 3.359 0 1.679 1.71 1.678 2.91z"/></g><path d="M270.728 69.994l5-5h10v10h-10l-5-5z"/><path d="M250.728 69.994h20M24.5 120.5l-5 5h-10v-10h10l5 5zm146.346-.006H25.158"/><path d="M35.25 144.71v5.04h120v-5.946m5 .906v5.04h85.895v-4.437" stroke-width=".5" stroke-dasharray="1,2"/></g><text xml:space="preserve" x="43.254" y="161.078" font-size="10" fill="#000" class="B"><tspan x="43.254" y="161.078">Combination logic</tspan></text><text xml:space="preserve" x="177.102" y="161.078" font-size="10" fill="#000" class="B"><tspan x="177.102" y="161.078">Register</tspan></text></svg>